<svg xmlns="http://www.w3.org/2000/svg" xmlns:xlink="http://www.w3.org/1999/xlink" width="451" zoomAndPan="magnify" viewBox="0 0 338.25 429.749988" height="573" preserveAspectRatio="xMidYMid meet" version="1.0"><defs><filter x="0%" y="0%" width="100%" height="100%" id="id1"><feColorMatrix values="0 0 0 0 1 0 0 0 0 1 0 0 0 0 1 0 0 0 1 0" color-interpolation-filters="sRGB"/></filter><g/><mask id="id2"><g filter="url(#id1)"><rect x="-33.825" width="405.9" fill="#000000" y="-42.974999" height="515.699986" fill-opacity="0.0784"/></g></mask><clipPath id="id3"><path d="M 2.347656 2.167969 L 189.433594 2.167969 L 189.433594 88 L 2.347656 88 Z M 2.347656 2.167969 " clip-rule="nonzero"/></clipPath><clipPath id="id4"><rect x="0" width="192" y="0" height="90"/></clipPath><mask id="id5"><g filter="url(#id1)"><rect x="-33.825" width="405.9" fill="#000000" y="-42.974999" height="515.699986" fill-opacity="0.0784"/></g></mask><clipPath id="id6"><path d="M 2.433594 2.328125 L 187 2.328125 L 187 88 L 2.433594 88 Z M 2.433594 2.328125 " clip-rule="nonzero"/></clipPath><clipPath id="id7"><path d="M 2.433594 2.328125 L 187.273438 2.328125 L 187.273438 88.386719 L 2.433594 88.386719 Z M 2.433594 2.328125 " clip-rule="nonzero"/></clipPath><clipPath id="id8"><rect x="0" width="189" y="0" height="90"/></clipPath><mask id="id9"><g filter="url(#id1)"><rect x="-33.825" width="405.9" fill="#000000" y="-42.974999" height="515.699986" fill-opacity="0.0784"/></g></mask><clipPath id="id10"><path d="M 2.347656 2 L 189.433594 2 L 189.433594 110 L 2.347656 110 Z M 2.347656 2 " clip-rule="nonzero"/></clipPath><clipPath id="id11"><path d="M 2.347656 1.699219 L 189.433594 1.699219 L 189.433594 110 L 2.347656 110 Z M 2.347656 1.699219 " clip-rule="nonzero"/></clipPath><clipPath id="id12"><rect x="0" width="192" y="0" height="112"/></clipPath><clipPath id="id13"><path d="M 119 99.367188 L 128 99.367188 L 128 127 L 119 127 Z M 119 99.367188 " clip-rule="nonzero"/></clipPath><clipPath id="id14"><path d="M 117.382812 127 L 119 127 L 119 128 L 117.382812 128 Z M 117.382812 127 " clip-rule="nonzero"/></clipPath><clipPath id="id15"><path d="M 117.382812 127 L 119 127 L 119 128 L 117.382812 128 Z M 117.382812 127 " clip-rule="nonzero"/></clipPath><clipPath id="id16"><path d="M 117.382812 126 L 118 126 L 118 128 L 117.382812 128 Z M 117.382812 126 " clip-rule="nonzero"/></clipPath><clipPath id="id17"><path d="M 117.382812 126 L 119 126 L 119 128 L 117.382812 128 Z M 117.382812 126 " clip-rule="nonzero"/></clipPath><clipPath id="id18"><path d="M 117.382812 126 L 119 126 L 119 127 L 117.382812 127 Z M 117.382812 126 " clip-rule="nonzero"/></clipPath><clipPath id="id19"><path d="M 117.382812 126 L 119 126 L 119 127 L 117.382812 127 Z M 117.382812 126 " clip-rule="nonzero"/></clipPath><clipPath id="id20"><path d="M 117.382812 126 L 119 126 L 119 128 L 117.382812 128 Z M 117.382812 126 " clip-rule="nonzero"/></clipPath><clipPath id="id21"><path d="M 119 120 L 148.066406 120 L 148.066406 136 L 119 136 Z M 119 120 " clip-rule="nonzero"/></clipPath><clipPath id="id22"><path d="M 117.382812 127 L 120 127 L 120 135 L 117.382812 135 Z M 117.382812 127 " clip-rule="nonzero"/></clipPath><clipPath id="id23"><path d="M 118 127 L 147 127 L 147 139.03125 L 118 139.03125 Z M 118 127 " clip-rule="nonzero"/></clipPath></defs><g mask="url(#id2)"><g transform="matrix(1, 0, 0, 1, 73, 266)"><g clip-path="url(#id4)"><g fill="#ffffff" fill-opacity="1"><g transform="translate(29.253206, 15.524922)"><g/></g></g><g fill="#ffffff" fill-opacity="1"><g transform="translate(82.003419, 15.524922)"><g/></g></g><g fill="#ffffff" fill-opacity="1"><g transform="translate(148.726265, 15.524922)"><g/></g></g><g fill="#ffffff" fill-opacity="1"><g transform="translate(29.253206, 36.75827)"><g/></g></g><g fill="#ffffff" fill-opacity="1"><g transform="translate(82.003419, 36.75827)"><g/></g></g><g fill="#ffffff" fill-opacity="1"><g transform="translate(148.726265, 36.75827)"><g/></g></g><g fill="#ffffff" fill-opacity="1"><g transform="translate(29.253206, 57.991588)"><g/></g></g><g fill="#ffffff" fill-opacity="1"><g transform="translate(82.003419, 57.991588)"><g/></g></g><g fill="#ffffff" fill-opacity="1"><g transform="translate(148.726265, 57.991588)"><g/></g></g><g fill="#ffffff" fill-opacity="1"><g transform="translate(29.253206, 79.224937)"><g/></g></g><g fill="#ffffff" fill-opacity="1"><g transform="translate(82.003419, 79.224937)"><g/></g></g><g fill="#ffffff" fill-opacity="1"><g transform="translate(148.726265, 79.224937)"><g/></g></g><g clip-path="url(#id3)"><path stroke-linecap="butt" transform="matrix(0.748341, 0, 0, 0.748341, 2.34671, 2.167199)" fill-opacity="1" fill="#000000" fill-rule="nonzero" stroke-linejoin="miter" d="M 0.591111 1.180722 L 0.591111 113.496922 M 71.080397 1.180722 L 71.080397 113.496922 M 141.569683 1.180722 L 141.569683 113.496922 M 249.407224 1.180722 L 249.407224 113.496922 M 0.00126409 0.590875 L 249.997071 0.590875 M 0.00126409 28.966153 L 249.997071 28.966153 M 0.00126409 57.336212 L 249.997071 57.336212 M 0.00126409 85.71149 L 249.997071 85.71149 M 0.00126409 114.086769 L 249.997071 114.086769 " stroke="#ffffff" stroke-width="1.181972" stroke-opacity="1" stroke-miterlimit="4"/></g></g></g></g><g mask="url(#id5)"><g transform="matrix(1, 0, 0, 1, 73, 73)"><g clip-path="url(#id8)"><g fill="#ffffff" fill-opacity="1"><g transform="translate(26.692591, 15.686438)"><g/></g></g><g fill="#ffffff" fill-opacity="1"><g transform="translate(74.141109, 15.686438)"><g/></g></g><g fill="#ffffff" fill-opacity="1"><g transform="translate(26.692591, 36.919779)"><g/></g></g><g fill="#ffffff" fill-opacity="1"><g transform="translate(74.141109, 36.919779)"><g/></g></g><g fill="#ffffff" fill-opacity="1"><g transform="translate(26.692591, 58.153142)"><g/></g></g><g fill="#ffffff" fill-opacity="1"><g transform="translate(74.141109, 58.153142)"><g/></g></g><g fill="#ffffff" fill-opacity="1"><g transform="translate(26.692591, 79.406631)"><g/></g></g><g fill="#ffffff" fill-opacity="1"><g transform="translate(74.141109, 79.406631)"><g/></g></g><g clip-path="url(#id6)"><path fill="#000000" d="M 2.878906 3.214844 L 2.878906 87.28125 M 50.324219 3.214844 L 50.324219 87.28125 M 97.773438 3.214844 L 97.773438 87.28125 M 186.523438 3.214844 L 186.523438 87.28125 M 2.433594 2.769531 L 186.964844 2.769531 M 2.433594 24.003906 L 186.964844 24.003906 M 2.433594 45.238281 L 186.964844 45.238281 M 2.433594 66.492188 L 186.964844 66.492188 M 2.433594 87.722656 L 186.964844 87.722656 " fill-opacity="1" fill-rule="nonzero"/></g><g clip-path="url(#id7)"><path stroke-linecap="butt" transform="matrix(0.748341, 0, 0, 0.748341, 2.435042, 2.32873)" fill="none" stroke-linejoin="miter" d="M 0.593131 1.184105 L 0.593131 113.521185 M 63.993817 1.184105 L 63.993817 113.521185 M 127.399723 1.184105 L 127.399723 113.521185 M 245.995442 1.184105 L 245.995442 113.521185 M -0.0019356 0.589038 L 246.585288 0.589038 M -0.0019356 28.964317 L 246.585288 28.964317 M -0.0019356 57.339595 L 246.585288 57.339595 M -0.0019356 85.740973 L 246.585288 85.740973 M -0.0019356 114.111031 L 246.585288 114.111031 " stroke="#ffffff" stroke-width="1.181972" stroke-opacity="1" stroke-miterlimit="4"/></g></g></g></g><g mask="url(#id9)"><g transform="matrix(1, 0, 0, 1, 73, 159)"><g clip-path="url(#id12)"><g fill="#ffffff" fill-opacity="1"><g transform="translate(34.569527, 17.70952)"><g/></g></g><g fill="#ffffff" fill-opacity="1"><g transform="translate(97.959976, 17.70952)"><g/></g></g><g fill="#ffffff" fill-opacity="1"><g transform="translate(159.364864, 17.70952)"><g/></g></g><g fill="#ffffff" fill-opacity="1"><g transform="translate(34.569527, 41.702068)"><g/></g></g><g fill="#ffffff" fill-opacity="1"><g transform="translate(97.959976, 41.702068)"><g/></g></g><g fill="#ffffff" fill-opacity="1"><g transform="translate(159.364864, 41.702068)"><g/></g></g><g fill="#ffffff" fill-opacity="1"><g transform="translate(34.569527, 68.71107)"><g/></g></g><g fill="#ffffff" fill-opacity="1"><g transform="translate(97.959976, 68.71107)"><g/></g></g><g fill="#ffffff" fill-opacity="1"><g transform="translate(159.364864, 68.71107)"><g/></g></g><g fill="#ffffff" fill-opacity="1"><g transform="translate(34.569527, 98.116343)"><g/></g></g><g fill="#ffffff" fill-opacity="1"><g transform="translate(97.959976, 98.116343)"><g/></g></g><g fill="#ffffff" fill-opacity="1"><g transform="translate(159.364864, 98.116343)"><g/></g></g><g clip-path="url(#id10)"><path fill="#000000" d="M 2.789062 2.582031 L 2.789062 108.75 M 66.179688 2.582031 L 66.179688 108.75 M 129.570312 2.582031 L 129.570312 108.75 M 188.988281 2.582031 L 188.988281 108.75 M 2.347656 2.140625 L 189.429688 2.140625 M 2.347656 28.785156 L 189.429688 28.785156 M 2.347656 50.488281 L 189.429688 50.488281 M 2.347656 82.546875 L 189.429688 82.546875 M 2.347656 109.195312 L 189.429688 109.195312 " fill-opacity="1" fill-rule="nonzero"/></g><g clip-path="url(#id11)"><path stroke-linecap="butt" transform="matrix(0.748341, 0, 0, 0.748341, 2.34671, 1.698258)" fill="none" stroke-linejoin="miter" d="M 0.591111 1.180978 L 0.591111 143.05215 M 85.299355 1.180978 L 85.299355 143.05215 M 170.0076 1.180978 L 170.0076 143.05215 M 249.407224 1.180978 L 249.407224 143.05215 M 0.00126409 0.591131 L 249.997071 0.591131 M 0.00126409 36.195946 L 249.997071 36.195946 M 0.00126409 65.19761 L 249.997071 65.19761 M 0.00126409 108.037181 L 249.997071 108.037181 M 0.00126409 143.647216 L 249.997071 143.647216 " stroke="#ffffff" stroke-width="1.181972" stroke-opacity="1" stroke-miterlimit="4"/></g></g></g></g><path fill="#bdbcbd" d="M 118.265625 127.847656 L 118.195312 127.847656 L 118.195312 127.78125 L 118.273438 127.800781 L 118.265625 127.847656 M 118.195312 126.324219 L 118.195312 100.496094 L 119.234375 100.496094 L 119.234375 122.351562 L 118.238281 126.300781 L 118.195312 126.324219 " fill-opacity="1" fill-rule="nonzero"/><g clip-path="url(#id13)"><path fill="#ffffff" d="M 119.234375 126.71875 L 127.648438 126.71875 L 127.648438 99.367188 L 119.234375 99.367188 Z M 119.234375 126.71875 " fill-opacity="1" fill-rule="nonzero"/></g><path fill="#648f16" d="M 119.980469 117.839844 L 126.902344 117.839844 L 126.902344 100.496094 L 119.980469 100.496094 Z M 119.980469 117.839844 " fill-opacity="1" fill-rule="nonzero"/><path fill="#4b6b0f" d="M 120.371094 117.839844 L 119.980469 117.839844 L 119.980469 100.496094 L 122.898438 107.8125 L 120.371094 117.839844 " fill-opacity="1" fill-rule="nonzero"/><g clip-path="url(#id14)"><path fill="#bdbcbd" d="M 118.195312 127.78125 L 117.882812 127.703125 L 117.929688 127.515625 L 118.195312 127.652344 L 118.195312 127.78125 " fill-opacity="1" fill-rule="nonzero"/></g><path fill="#908e8e" d="M 118.273438 127.800781 L 118.195312 127.78125 L 118.195312 127.652344 L 118.285156 127.699219 L 118.273438 127.800781 M 118.238281 126.300781 L 119.234375 122.351562 L 119.234375 124.433594 L 118.25 126.292969 L 118.238281 126.300781 " fill-opacity="1" fill-rule="nonzero"/><path fill="#bdbcbd" d="M 119.234375 124.433594 L 119.234375 122.351562 L 120.371094 117.839844 L 121.441406 117.839844 L 120.273438 122.46875 L 119.234375 124.433594 " fill-opacity="1" fill-rule="nonzero"/><path fill="#4b6b0f" d="M 123.558594 109.457031 L 122.898438 107.8125 L 124.574219 101.175781 L 125.582031 101.429688 L 123.558594 109.457031 " fill-opacity="1" fill-rule="nonzero"/><path fill="#39520b" d="M 121.441406 117.839844 L 120.371094 117.839844 L 122.898438 107.8125 L 123.558594 109.457031 L 121.441406 117.839844 " fill-opacity="1" fill-rule="nonzero"/><path fill="#ffffff" d="M 127.328125 128.90625 L 119.167969 126.863281 L 125.855469 100.335938 L 134.019531 102.378906 L 127.328125 128.90625 " fill-opacity="1" fill-rule="nonzero"/><path fill="#93d222" d="M 128.777344 120.109375 L 122.0625 118.429688 L 126.304688 101.609375 L 133.019531 103.292969 L 128.777344 120.109375 " fill-opacity="1" fill-rule="nonzero"/><path fill="#6c9a18" d="M 122.375 118.507812 L 122.0625 118.429688 L 126.304688 101.609375 L 127.316406 109.179688 L 122.375 118.507812 " fill-opacity="1" fill-rule="nonzero"/><g clip-path="url(#id15)"><path fill="#bdbcbd" d="M 117.929688 127.515625 L 117.671875 127.378906 L 117.835938 127.074219 L 118.003906 127.230469 L 117.929688 127.515625 " fill-opacity="1" fill-rule="nonzero"/><path fill="#908e8e" d="M 118.195312 127.652344 L 117.929688 127.515625 L 118.003906 127.230469 L 118.046875 127.273438 L 118.195312 127.53125 L 118.195312 127.652344 " fill-opacity="1" fill-rule="nonzero"/></g><path fill="#6f6c6d" d="M 118.285156 127.699219 L 118.195312 127.652344 L 118.195312 127.53125 L 118.285156 127.691406 L 118.285156 127.699219 " fill-opacity="1" fill-rule="nonzero"/><path fill="#6f6c6d" d="M 118.25 126.292969 L 119.234375 124.433594 L 119.234375 125.359375 L 118.511719 126.128906 L 118.484375 126.125 L 118.476562 126.164062 L 118.25 126.292969 " fill-opacity="1" fill-rule="nonzero"/><path fill="#908e8e" d="M 119.234375 125.359375 L 119.234375 124.433594 L 120.273438 122.46875 L 119.660156 124.902344 L 119.234375 125.359375 " fill-opacity="1" fill-rule="nonzero"/><path fill="#bdbcbd" d="M 119.660156 124.902344 L 120.273438 122.46875 L 122.375 118.507812 L 123.410156 118.765625 L 120.8125 123.671875 L 119.660156 124.902344 " fill-opacity="1" fill-rule="nonzero"/><path fill="#6c9a18" d="M 127.554688 110.949219 L 127.316406 109.179688 L 130.488281 103.191406 L 131.40625 103.675781 L 127.554688 110.949219 " fill-opacity="1" fill-rule="nonzero"/><path fill="#517311" d="M 123.410156 118.765625 L 122.375 118.507812 L 127.316406 109.179688 L 127.554688 110.949219 L 123.410156 118.765625 " fill-opacity="1" fill-rule="nonzero"/><path fill="#ffffff" d="M 126.5625 130.785156 L 119.121094 126.867188 L 131.9375 102.679688 L 139.375 106.597656 L 126.5625 130.785156 " fill-opacity="1" fill-rule="nonzero"/><path fill="#dbe70b" d="M 130.0625 122.582031 L 123.941406 119.359375 L 132.066406 104.023438 L 138.1875 107.25 L 130.0625 122.582031 " fill-opacity="1" fill-rule="nonzero"/><path fill="#a1aa08" d="M 124.550781 119.679688 L 123.941406 119.359375 L 132.066406 104.023438 L 131.136719 112.644531 L 124.550781 119.679688 " fill-opacity="1" fill-rule="nonzero"/><g clip-path="url(#id16)"><path fill="#bdbcbd" d="M 117.835938 127.074219 L 117.722656 126.972656 L 117.816406 126.871094 L 117.882812 126.984375 L 117.835938 127.074219 " fill-opacity="1" fill-rule="nonzero"/></g><g clip-path="url(#id17)"><path fill="#908e8e" d="M 118.003906 127.230469 L 117.835938 127.074219 L 117.882812 126.984375 L 118.007812 127.207031 L 118.003906 127.230469 " fill-opacity="1" fill-rule="nonzero"/></g><path fill="#6f6c6d" d="M 118.046875 127.273438 L 118.003906 127.230469 L 118.007812 127.207031 L 118.046875 127.273438 " fill-opacity="1" fill-rule="nonzero"/><path fill="#585556" d="M 118.53125 126.132812 L 118.511719 126.128906 L 119.234375 125.359375 L 119.234375 125.734375 L 118.53125 126.132812 " fill-opacity="1" fill-rule="nonzero"/><path fill="#6f6c6d" d="M 119.234375 125.734375 L 119.234375 125.359375 L 119.660156 124.902344 L 119.488281 125.585938 L 119.234375 125.734375 " fill-opacity="1" fill-rule="nonzero"/><path fill="#908e8e" d="M 119.488281 125.585938 L 119.660156 124.902344 L 120.8125 123.671875 L 119.933594 125.335938 L 119.488281 125.585938 " fill-opacity="1" fill-rule="nonzero"/><path fill="#bdbcbd" d="M 119.933594 125.335938 L 120.8125 123.671875 L 124.550781 119.679688 L 125.503906 120.179688 L 121.53125 124.421875 L 119.933594 125.335938 " fill-opacity="1" fill-rule="nonzero"/><path fill="#a1aa08" d="M 130.949219 114.359375 L 131.136719 112.644531 L 136.445312 106.972656 L 137.203125 107.679688 L 130.949219 114.359375 " fill-opacity="1" fill-rule="nonzero"/><path fill="#787f06" d="M 125.503906 120.179688 L 124.550781 119.679688 L 131.136719 112.644531 L 130.949219 114.359375 L 125.503906 120.179688 " fill-opacity="1" fill-rule="nonzero"/><path fill="#ffffff" d="M 125.40625 132.578125 L 119.253906 126.855469 L 137.976562 106.855469 L 144.128906 112.582031 L 125.40625 132.578125 " fill-opacity="1" fill-rule="nonzero"/><path fill="#fccf29" d="M 130.941406 125.578125 L 125.878906 120.867188 L 137.75 108.1875 L 142.808594 112.898438 L 130.941406 125.578125 " fill-opacity="1" fill-rule="nonzero"/><path fill="#ba981d" d="M 126.597656 121.535156 L 125.878906 120.867188 L 137.75 108.1875 L 134.226562 117.1875 L 126.597656 121.535156 " fill-opacity="1" fill-rule="nonzero"/><g clip-path="url(#id18)"><path fill="#bdbcbd" d="M 117.816406 126.871094 L 117.671875 126.621094 L 118.023438 126.421875 L 118.070312 126.601562 L 117.816406 126.871094 " fill-opacity="1" fill-rule="nonzero"/></g><path fill="#6f6c6d" d="M 118.195312 127.53125 L 118.046875 127.273438 L 118.195312 127.410156 L 118.195312 127.53125 " fill-opacity="1" fill-rule="nonzero"/><path fill="#585556" d="M 118.285156 127.691406 L 118.195312 127.53125 L 118.195312 127.410156 L 118.296875 127.503906 L 118.304688 127.539062 L 118.285156 127.691406 " fill-opacity="1" fill-rule="nonzero"/><g clip-path="url(#id19)"><path fill="#908e8e" d="M 117.882812 126.984375 L 117.816406 126.871094 L 118.070312 126.601562 L 118.074219 126.625 L 117.882812 126.984375 " fill-opacity="1" fill-rule="nonzero"/></g><g clip-path="url(#id20)"><path fill="#6f6c6d" d="M 118.007812 127.207031 L 117.882812 126.984375 L 118.074219 126.625 L 118.113281 126.789062 L 118.007812 127.207031 " fill-opacity="1" fill-rule="nonzero"/></g><path fill="#585556" d="M 118.195312 127.410156 L 118.046875 127.273438 L 118.007812 127.207031 L 118.113281 126.789062 L 118.195312 127.101562 L 118.195312 127.410156 " fill-opacity="1" fill-rule="nonzero"/><path fill="#494646" d="M 118.296875 127.503906 L 118.195312 127.410156 L 118.195312 127.101562 L 118.296875 127.503906 " fill-opacity="1" fill-rule="nonzero"/><path fill="#bdbcbd" d="M 118.144531 126.351562 L 118.195312 126.324219 L 118.195312 126.339844 L 118.144531 126.351562 " fill-opacity="1" fill-rule="nonzero"/><path fill="#908e8e" d="M 118.195312 126.339844 L 118.195312 126.324219 L 118.238281 126.300781 L 118.230469 126.328125 L 118.226562 126.332031 L 118.195312 126.339844 " fill-opacity="1" fill-rule="nonzero"/><path fill="#6f6c6d" d="M 118.230469 126.328125 L 118.238281 126.300781 L 118.25 126.292969 L 118.230469 126.328125 " fill-opacity="1" fill-rule="nonzero"/><path fill="#6f6c6d" d="M 118.226562 126.332031 L 118.230469 126.328125 L 118.230469 126.332031 L 118.226562 126.332031 " fill-opacity="1" fill-rule="nonzero"/><path fill="#585556" d="M 118.230469 126.332031 L 118.230469 126.328125 L 118.25 126.292969 L 118.476562 126.164062 L 118.351562 126.300781 L 118.230469 126.332031 " fill-opacity="1" fill-rule="nonzero"/><path fill="#494646" d="M 118.351562 126.300781 L 118.476562 126.164062 L 118.464844 126.273438 L 118.351562 126.300781 M 118.863281 126.171875 L 118.53125 126.132812 L 119.234375 125.734375 L 119.234375 126.078125 L 118.863281 126.171875 " fill-opacity="1" fill-rule="nonzero"/><path fill="#585556" d="M 119.234375 126.078125 L 119.234375 125.734375 L 119.488281 125.585938 L 119.375 126.042969 L 119.234375 126.078125 " fill-opacity="1" fill-rule="nonzero"/><path fill="#6f6c6d" d="M 119.375 126.042969 L 119.488281 125.585938 L 119.933594 125.335938 L 119.582031 125.992188 L 119.375 126.042969 " fill-opacity="1" fill-rule="nonzero"/><path fill="#908e8e" d="M 119.582031 125.992188 L 119.933594 125.335938 L 121.53125 124.421875 L 120.207031 125.835938 L 119.582031 125.992188 " fill-opacity="1" fill-rule="nonzero"/><path fill="#bdbcbd" d="M 120.207031 125.835938 L 121.53125 124.421875 L 126.597656 121.535156 L 127.390625 122.273438 L 121.878906 125.417969 L 120.207031 125.835938 M 141.628906 114.160156 L 141.941406 113.828125 L 142.007812 113.941406 L 141.628906 114.160156 " fill-opacity="1" fill-rule="nonzero"/><path fill="#ba981d" d="M 133.625 118.722656 L 134.226562 117.1875 L 141.492188 113.042969 L 141.941406 113.828125 L 141.628906 114.160156 L 133.625 118.722656 " fill-opacity="1" fill-rule="nonzero"/><path fill="#8c7116" d="M 127.390625 122.273438 L 126.597656 121.535156 L 134.226562 117.1875 L 133.625 118.722656 L 127.390625 122.273438 " fill-opacity="1" fill-rule="nonzero"/><path fill="#ffffff" d="M 123.347656 134.242188 L 119.171875 126.960938 L 142.992188 113.382812 L 147.167969 120.667969 L 123.347656 134.242188 " fill-opacity="1" fill-rule="nonzero"/><path fill="#f8a52b" d="M 130.714844 129.1875 L 127.277344 123.195312 L 142.378906 114.589844 L 145.816406 120.582031 L 130.714844 129.1875 " fill-opacity="1" fill-rule="nonzero"/><path fill="#b8791f" d="M 127.710938 123.957031 L 127.277344 123.195312 L 142.378906 114.589844 L 136.691406 121.703125 L 127.710938 123.957031 " fill-opacity="1" fill-rule="nonzero"/><path fill="#bdbcbd" d="M 118.023438 126.421875 L 118.011719 126.386719 L 118.144531 126.351562 L 118.023438 126.421875 " fill-opacity="1" fill-rule="nonzero"/><path fill="#908e8e" d="M 118.070312 126.601562 L 118.023438 126.421875 L 118.144531 126.351562 L 118.195312 126.339844 L 118.195312 126.394531 L 118.105469 126.5625 L 118.070312 126.601562 " fill-opacity="1" fill-rule="nonzero"/><path fill="#6f6c6d" d="M 118.195312 126.394531 L 118.195312 126.339844 L 118.226562 126.332031 L 118.195312 126.394531 " fill-opacity="1" fill-rule="nonzero"/><path fill="#494646" d="M 118.304688 127.539062 L 118.296875 127.503906 L 118.308594 127.515625 L 118.304688 127.539062 " fill-opacity="1" fill-rule="nonzero"/><path fill="#6f6c6d" d="M 118.105469 126.5625 L 118.195312 126.394531 L 118.195312 126.46875 L 118.105469 126.5625 " fill-opacity="1" fill-rule="nonzero"/><path fill="#585556" d="M 118.195312 126.46875 L 118.195312 126.394531 L 118.226562 126.332031 L 118.230469 126.332031 L 118.195312 126.46875 " fill-opacity="1" fill-rule="nonzero"/><path fill="#494646" d="M 118.195312 126.46875 L 118.230469 126.332031 L 118.351562 126.300781 L 118.195312 126.46875 " fill-opacity="1" fill-rule="nonzero"/><path fill="#6f6c6d" d="M 118.074219 126.625 L 118.070312 126.601562 L 118.105469 126.5625 L 118.074219 126.625 " fill-opacity="1" fill-rule="nonzero"/><path fill="#585556" d="M 118.113281 126.789062 L 118.074219 126.625 L 118.105469 126.5625 L 118.195312 126.46875 L 118.195312 126.472656 L 118.113281 126.789062 " fill-opacity="1" fill-rule="nonzero"/><path fill="#494646" d="M 118.195312 127.101562 L 118.113281 126.789062 L 118.195312 126.472656 L 118.195312 127.101562 " fill-opacity="1" fill-rule="nonzero"/><path fill="#3e3a3b" d="M 118.308594 127.515625 L 118.296875 127.503906 L 118.195312 127.101562 L 118.195312 126.46875 L 118.351562 126.300781 L 118.464844 126.273438 L 118.308594 127.515625 M 119.234375 126.21875 L 118.863281 126.171875 L 119.234375 126.078125 L 119.234375 126.21875 " fill-opacity="1" fill-rule="nonzero"/><path fill="#494646" d="M 119.324219 126.230469 L 119.234375 126.21875 L 119.234375 126.078125 L 119.375 126.042969 L 119.324219 126.230469 " fill-opacity="1" fill-rule="nonzero"/><path fill="#585556" d="M 119.449219 126.246094 L 119.324219 126.230469 L 119.375 126.042969 L 119.582031 125.992188 L 119.449219 126.246094 " fill-opacity="1" fill-rule="nonzero"/><path fill="#6f6c6d" d="M 119.785156 126.289062 L 119.449219 126.246094 L 119.582031 125.992188 L 120.207031 125.835938 L 119.785156 126.289062 " fill-opacity="1" fill-rule="nonzero"/><path fill="#908e8e" d="M 120.25 126.347656 L 119.785156 126.289062 L 120.207031 125.835938 L 121.878906 125.417969 L 120.25 126.347656 " fill-opacity="1" fill-rule="nonzero"/><path fill="#bdbcbd" d="M 121.703125 126.527344 L 120.25 126.347656 L 121.878906 125.417969 L 127.710938 123.957031 L 128.246094 124.890625 L 121.703125 126.527344 " fill-opacity="1" fill-rule="nonzero"/><path fill="#b8791f" d="M 135.625 123.039062 L 136.691406 121.703125 L 144.621094 119.71875 L 144.875 120.722656 L 135.625 123.039062 " fill-opacity="1" fill-rule="nonzero"/><path fill="#8a5a17" d="M 128.246094 124.890625 L 127.710938 123.957031 L 136.691406 121.703125 L 135.625 123.039062 L 128.246094 124.890625 " fill-opacity="1" fill-rule="nonzero"/><g clip-path="url(#id21)"><path fill="#ffffff" d="M 121.414062 135.25 L 119.363281 127.117188 L 145.972656 120.445312 L 148.023438 128.582031 L 121.414062 135.25 " fill-opacity="1" fill-rule="nonzero"/></g><path fill="#f5762e" d="M 129.875 132.363281 L 128.1875 125.671875 L 145.058594 121.441406 L 146.746094 128.136719 L 129.875 132.363281 " fill-opacity="1" fill-rule="nonzero"/><path fill="#b55721" d="M 135.570312 128.265625 L 128.621094 127.394531 L 128.1875 125.671875 L 145.058594 121.441406 L 135.570312 128.265625 " fill-opacity="1" fill-rule="nonzero"/><g clip-path="url(#id22)"><path fill="#bdbcbd" d="M 118.554688 134.589844 L 117.433594 134.449219 L 118.265625 127.847656 L 118.375 127.847656 L 118.386719 127.863281 L 119.066406 130.554688 L 118.554688 134.589844 " fill-opacity="1" fill-rule="nonzero"/></g><path fill="#908e8e" d="M 118.375 127.847656 L 118.265625 127.847656 L 118.273438 127.800781 L 118.363281 127.824219 L 118.375 127.847656 " fill-opacity="1" fill-rule="nonzero"/><path fill="#6f6c6d" d="M 118.363281 127.824219 L 118.273438 127.800781 L 118.285156 127.699219 L 118.296875 127.707031 L 118.363281 127.824219 " fill-opacity="1" fill-rule="nonzero"/><path fill="#585556" d="M 118.296875 127.707031 L 118.285156 127.699219 L 118.285156 127.691406 L 118.296875 127.707031 " fill-opacity="1" fill-rule="nonzero"/><path fill="#bdbcbd" d="M 145.578125 130.566406 L 141.9375 130.109375 L 144.710938 129.414062 L 145.707031 129.539062 L 145.578125 130.566406 " fill-opacity="1" fill-rule="nonzero"/><path fill="#585556" d="M 118.476562 126.164062 L 118.484375 126.125 L 118.511719 126.128906 L 118.484375 126.160156 L 118.476562 126.164062 " fill-opacity="1" fill-rule="nonzero"/><path fill="#494646" d="M 118.484375 126.160156 L 118.511719 126.128906 L 118.53125 126.132812 L 118.484375 126.160156 " fill-opacity="1" fill-rule="nonzero"/><path fill="#908e8e" d="M 118.386719 127.863281 L 118.375 127.847656 L 118.382812 127.847656 L 118.386719 127.863281 " fill-opacity="1" fill-rule="nonzero"/><path fill="#6f6c6d" d="M 118.382812 127.847656 L 118.375 127.847656 L 118.363281 127.824219 L 118.375 127.828125 L 118.382812 127.847656 " fill-opacity="1" fill-rule="nonzero"/><path fill="#585556" d="M 118.375 127.828125 L 118.363281 127.824219 L 118.296875 127.707031 L 118.355469 127.738281 L 118.375 127.828125 " fill-opacity="1" fill-rule="nonzero"/><path fill="#494646" d="M 118.355469 127.738281 L 118.296875 127.707031 L 118.285156 127.691406 L 118.304688 127.539062 L 118.355469 127.738281 " fill-opacity="1" fill-rule="nonzero"/><path fill="#494646" d="M 118.476562 126.164062 L 118.484375 126.160156 L 118.476562 126.164062 " fill-opacity="1" fill-rule="nonzero"/><path fill="#3e3a3b" d="M 118.464844 126.273438 L 118.476562 126.164062 L 118.484375 126.160156 L 118.53125 126.132812 L 118.863281 126.171875 L 118.464844 126.273438 " fill-opacity="1" fill-rule="nonzero"/><path fill="#908e8e" d="M 119.066406 130.554688 L 118.386719 127.863281 L 119.21875 129.320312 L 119.066406 130.554688 " fill-opacity="1" fill-rule="nonzero"/><path fill="#6f6c6d" d="M 119.21875 129.320312 L 118.386719 127.863281 L 118.382812 127.847656 L 118.464844 127.847656 L 118.65625 127.894531 L 118.796875 127.972656 L 119.328125 128.464844 L 119.21875 129.320312 " fill-opacity="1" fill-rule="nonzero"/><path fill="#585556" d="M 118.464844 127.847656 L 118.382812 127.847656 L 118.375 127.828125 L 118.464844 127.847656 " fill-opacity="1" fill-rule="nonzero"/><path fill="#585556" d="M 118.65625 127.894531 L 118.464844 127.847656 L 118.566406 127.847656 L 118.65625 127.894531 " fill-opacity="1" fill-rule="nonzero"/><path fill="#494646" d="M 118.566406 127.847656 L 118.464844 127.847656 L 118.375 127.828125 L 118.355469 127.738281 L 118.566406 127.847656 " fill-opacity="1" fill-rule="nonzero"/><path fill="#585556" d="M 118.796875 127.972656 L 118.65625 127.894531 L 118.738281 127.917969 L 118.796875 127.972656 " fill-opacity="1" fill-rule="nonzero"/><path fill="#494646" d="M 118.738281 127.917969 L 118.65625 127.894531 L 118.566406 127.847656 L 118.664062 127.847656 L 118.738281 127.917969 " fill-opacity="1" fill-rule="nonzero"/><path fill="#3e3a3b" d="M 118.664062 127.847656 L 118.566406 127.847656 L 118.355469 127.738281 L 118.304688 127.539062 L 118.308594 127.515625 L 118.664062 127.847656 " fill-opacity="1" fill-rule="nonzero"/><path fill="#585556" d="M 119.328125 128.464844 L 118.796875 127.972656 L 119.355469 128.265625 L 119.328125 128.464844 " fill-opacity="1" fill-rule="nonzero"/><path fill="#494646" d="M 119.355469 128.265625 L 118.796875 127.972656 L 118.738281 127.917969 L 119.378906 128.078125 L 119.355469 128.265625 " fill-opacity="1" fill-rule="nonzero"/><path fill="#3e3a3b" d="M 119.378906 128.078125 L 118.738281 127.917969 L 118.664062 127.847656 L 119.40625 127.847656 L 119.378906 128.078125 " fill-opacity="1" fill-rule="nonzero"/><path fill="#363233" d="M 119.40625 127.847656 L 118.664062 127.847656 L 118.308594 127.515625 L 118.464844 126.273438 L 118.863281 126.171875 L 119.234375 126.21875 L 119.234375 126.601562 L 119.207031 126.699219 L 119.121094 126.867188 L 119.234375 126.925781 L 119.171875 126.960938 L 119.445312 127.4375 L 119.453125 127.46875 L 119.40625 127.847656 " fill-opacity="1" fill-rule="nonzero"/><path fill="#3e3a3b" d="M 119.234375 126.601562 L 119.234375 126.21875 L 119.324219 126.230469 L 119.234375 126.601562 " fill-opacity="1" fill-rule="nonzero"/><path fill="#494646" d="M 119.207031 126.699219 L 119.234375 126.601562 L 119.324219 126.230469 L 119.449219 126.246094 L 119.207031 126.699219 " fill-opacity="1" fill-rule="nonzero"/><path fill="#585556" d="M 119.234375 126.925781 L 119.121094 126.867188 L 119.207031 126.699219 L 119.449219 126.246094 L 119.785156 126.289062 L 119.253906 126.855469 L 119.292969 126.890625 L 119.234375 126.925781 " fill-opacity="1" fill-rule="nonzero"/><path fill="#6f6c6d" d="M 119.292969 126.890625 L 119.253906 126.855469 L 119.785156 126.289062 L 120.25 126.347656 L 119.292969 126.890625 " fill-opacity="1" fill-rule="nonzero"/><path fill="#908e8e" d="M 119.445312 127.4375 L 119.171875 126.960938 L 119.234375 126.925781 L 119.292969 126.890625 L 120.25 126.347656 L 121.703125 126.527344 L 119.363281 127.117188 L 119.445312 127.4375 " fill-opacity="1" fill-rule="nonzero"/><path fill="#bdbcbd" d="M 141.9375 130.109375 L 139.894531 129.851562 L 142.671875 129.15625 L 144.710938 129.414062 L 141.9375 130.109375 M 128.894531 128.472656 L 119.476562 127.292969 L 119.453125 127.46875 L 119.445312 127.4375 L 119.363281 127.117188 L 121.703125 126.527344 L 128.621094 127.394531 L 128.894531 128.472656 " fill-opacity="1" fill-rule="nonzero"/><path fill="#b55721" d="M 139.894531 129.851562 L 134.335938 129.15625 L 135.570312 128.265625 L 142.671875 129.15625 L 139.894531 129.851562 " fill-opacity="1" fill-rule="nonzero"/><path fill="#894118" d="M 134.335938 129.15625 L 128.894531 128.472656 L 128.621094 127.394531 L 135.570312 128.265625 L 134.335938 129.15625 " fill-opacity="1" fill-rule="nonzero"/><g clip-path="url(#id23)"><path fill="#ffffff" d="M 118.425781 135.617188 L 119.476562 127.292969 L 146.699219 130.707031 L 145.648438 139.03125 L 118.425781 135.617188 " fill-opacity="1" fill-rule="nonzero"/></g><path fill="#f14b31" d="M 127.359375 135.988281 L 128.222656 129.140625 L 145.484375 131.300781 L 144.621094 138.152344 L 127.359375 135.988281 " fill-opacity="1" fill-rule="nonzero"/><path fill="#b33622" d="M 127.359375 135.988281 L 128.222656 129.140625 L 145.484375 131.300781 L 127.359375 135.988281 " fill-opacity="1" fill-rule="nonzero"/></svg>